<svg width="159" height="201" viewBox="0 0 159 201" fill="none" xmlns="http://www.w3.org/2000/svg">
<path d="M5.35403 127.549L11.7984 126.38C12.7791 126.202 13.6074 125.549 14.0088 124.636L15.9788 120.158C16.4723 119.036 16.2337 117.727 15.3762 116.851L10.9194 112.3C9.67919 111.033 9.80163 108.973 11.1831 107.863L19.9436 100.82C21.2498 99.7696 23.1631 99.9933 24.1917 101.317L29.0566 107.574C30.0714 108.88 31.951 109.118 33.2593 108.107L35.4146 106.442C36.2694 105.781 36.7032 104.712 36.5501 103.643L35.5736 96.8208C35.3149 95.0133 36.7173 93.3958 38.5433 93.3958H46.7514C48.4083 93.3958 49.7514 94.7389 49.7514 96.3958V101.382C49.7514 102.638 50.5335 103.761 51.7113 104.196L58.3826 106.662C59.4045 107.04 60.5507 106.834 61.3772 106.124L65.8808 102.257C67.1658 101.153 69.109 101.332 70.1715 102.651L74.2342 107.694C75.2433 108.947 75.0849 110.772 73.8751 111.833L69.8095 115.395C68.8609 116.226 68.5335 117.562 68.9903 118.738L70.8373 123.492C71.4073 124.959 73.014 125.736 74.5179 125.272L78.9318 123.91C80.7067 123.363 82.5476 124.544 82.7904 126.385L83.9034 134.827C84.0931 136.266 83.2258 137.634 81.8438 138.076L75.685 140.048C74.7181 140.357 73.9734 141.135 73.7057 142.114L72.2021 147.617C71.9773 148.439 72.1132 149.318 72.5757 150.035L75.8337 155.08C76.6974 156.418 76.3657 158.197 75.0781 159.134L67.9165 164.343C66.8559 165.114 65.4172 165.107 64.364 164.326L60.3284 161.331C59.347 160.602 58.0219 160.542 56.9785 161.179L53.6541 163.206C52.5706 163.867 52.0201 165.138 52.2794 166.38L53.0592 170.116C53.4273 171.879 52.1692 173.567 50.3741 173.718L40.8566 174.519C39.2346 174.656 37.7996 173.474 37.6228 171.856L37.0377 166.504C36.895 165.198 35.9195 164.137 34.6304 163.885L29.9036 162.962C28.763 162.739 27.5964 163.195 26.9093 164.133L24.2475 167.763C23.2099 169.178 21.1844 169.405 19.86 168.254L12.4763 161.835C11.3482 160.855 11.114 159.193 11.9272 157.939L15.8617 151.871C16.4404 150.978 16.5032 149.846 16.0267 148.895L12.6727 142.2C12.1641 141.185 11.1259 140.544 9.99048 140.544H5.88965C4.23279 140.544 2.88965 139.201 2.88965 137.544V130.501C2.88965 129.051 3.92708 127.808 5.35403 127.549Z" stroke="currentColor" stroke-width="2"/>
<path d="M76.8021 157.654L66.7787 165.076C65.7171 165.862 64.2663 165.862 63.2056 165.074L59.1858 162.091C58.2044 161.363 56.8793 161.303 55.8359 161.939L52.5115 163.967C51.428 164.628 50.8775 165.899 51.1369 167.141L51.9166 170.876C52.2847 172.64 51.0266 174.328 49.2315 174.479L39.714 175.28C38.092 175.416 36.6571 174.234 36.4802 172.616L35.8951 167.264C35.7524 165.958 34.7769 164.897 33.4878 164.646L28.761 163.723C27.6204 163.5 26.4538 163.956 25.7667 164.893L23.1049 168.524C22.0673 169.939 20.0419 170.165 18.7174 169.014L11.3337 162.596C10.2056 161.615 9.97142 159.954 10.7846 158.7L14.7191 152.631C15.2978 151.739 15.3606 150.606 14.8841 149.655L11.5301 142.961C11.0215 141.946 9.98335 141.305 8.8479 141.305H4.74707C3.09022 141.305 1.74707 139.961 1.74707 138.305V131.262C1.74707 129.811 2.7845 128.569 4.21145 128.31L10.6558 127.141C11.6365 126.963 12.4648 126.309 12.8662 125.397L14.8362 120.919C15.3297 119.797 15.0912 118.487 14.2336 117.612L9.7768 113.06C8.53661 111.794 8.65906 109.734 10.0406 108.623L18.801 101.58C20.1072 100.53 22.0205 100.754 23.0492 102.077L27.914 108.335C28.9288 109.64 30.8084 109.878 32.1167 108.867L34.4894 107.034C35.2247 106.466 35.6552 105.589 35.6552 104.66V94.3464" stroke="currentColor" stroke-width="2" stroke-linecap="round"/>
<path d="M56.7528 134.08C56.7528 141.296 50.8912 147.149 43.6562 147.149C36.4212 147.149 30.5596 141.296 30.5596 134.08C30.5596 126.865 36.4212 121.012 43.6562 121.012C50.8912 121.012 56.7528 126.865 56.7528 134.08Z" stroke="currentColor" stroke-width="2"/>
<path d="M45.37 147.008C51.4658 145.487 55.0852 140.59 55.0852 134.08C55.0852 127.57 50.8943 120.962 42.8936 120.962" stroke="currentColor" stroke-width="2" stroke-linecap="round"/>
<path d="M121.947 94.1554C121.947 98.851 118.132 102.661 113.422 102.661C108.712 102.661 104.897 98.851 104.897 94.1554C104.897 89.4597 108.712 85.6497 113.422 85.6497C118.132 85.6497 121.947 89.4597 121.947 94.1554Z" stroke="currentColor" stroke-width="2"/>
<path d="M114.185 102.711C118.566 100.81 121.042 98.5286 121.042 94.156C120.661 89.7833 118.375 87.1217 114.185 85.6008" stroke="currentColor" stroke-width="2" stroke-linecap="round"/>
<path d="M115.47 159.175C115.47 163.136 112.253 166.35 108.279 166.35C104.306 166.35 101.088 163.136 101.088 159.175C101.088 155.214 104.306 152 108.279 152C112.253 152 115.47 155.214 115.47 159.175Z" stroke="#2563EB" stroke-width="2"/>
<path d="M108.471 166.399C112.661 165.258 114.613 162.597 114.947 159.555C115.439 155.067 112.09 152.901 109.804 152.141" stroke="#2563EB" stroke-width="2" stroke-linecap="round"/>
<path d="M88.7575 100.401L89.7438 102.597C90.2402 103.702 90.0232 104.997 89.1938 105.88L86.7366 108.496C85.6692 109.632 85.65 111.397 86.6924 112.556L89.7938 116.005C90.7845 117.107 92.4309 117.32 93.6698 116.508L96.7415 114.493C97.6343 113.908 98.7709 113.841 99.7262 114.317L101.476 115.19C102.493 115.698 103.136 116.738 103.136 117.875V120.053C103.136 121.71 104.479 123.053 106.136 123.053H112.709C114.366 123.053 115.709 121.71 115.709 120.053V119.443C115.709 118.186 116.493 117.061 117.674 116.627L120.76 115.493C122.047 115.019 123.491 115.479 124.268 116.609L125.527 118.443C126.573 119.964 128.731 120.19 130.068 118.917L133.756 115.408C134.867 114.35 135.001 112.624 134.067 111.407L132.547 109.429C131.809 108.469 131.721 107.16 132.322 106.11L133.64 103.808C134.105 102.997 134.921 102.449 135.848 102.325L140.213 101.744C141.76 101.539 142.891 100.181 142.814 98.6229L142.527 92.8029C142.445 91.139 141.023 89.8605 139.36 89.9554L137.636 90.0537C136.463 90.1206 135.359 89.497 134.811 88.458L132.996 85.0162C132.353 83.7962 132.624 82.2946 133.654 81.377L135.166 80.0302C136.334 78.9891 136.506 77.2248 135.56 75.9778L133.839 73.7078C132.79 72.3248 130.79 72.1176 129.48 73.2562L127.747 74.7626C126.716 75.6591 125.209 75.7453 124.082 74.9721L120.991 72.8516C120.296 72.3745 119.834 71.6267 119.717 70.7914L119.356 68.1946C119.129 66.5674 117.636 65.4251 116.007 65.6321L111.092 66.2563C109.593 66.4467 108.47 67.7217 108.47 69.2324V70.9792C108.47 72.3192 107.581 73.4967 106.293 73.8642L104.499 74.3758C103.636 74.6217 102.709 74.4688 101.971 73.9589L97.7335 71.0314C96.5555 70.2175 94.9666 70.3494 93.9391 71.3465L90.9977 74.2005C89.8103 75.3525 89.7797 77.2483 90.9293 78.4381L92.323 79.8806C93.2988 80.8905 93.4435 82.4421 92.6712 83.615L90.5001 86.9122C89.9451 87.755 89.0036 88.2623 87.9945 88.2623H85.89C84.413 88.2623 83.1558 89.3374 82.9264 90.7965L82.2693 94.9772C82.011 96.6207 83.1394 98.1606 84.7844 98.4093L86.4694 98.6641C87.4778 98.8166 88.3396 99.4709 88.7575 100.401Z" stroke="currentColor" stroke-width="2"/>
<path d="M136.091 78.9466L132.695 74.468C131.647 73.085 129.647 72.8778 128.337 74.0164L126.604 75.5228C125.572 76.4194 124.065 76.5055 122.938 75.7324L119.848 73.6119C119.152 73.1348 118.69 72.387 118.574 71.5517L118.212 68.9549C117.986 67.3277 116.493 66.1853 114.863 66.3923L109.949 67.0166C108.45 67.2069 107.327 68.4819 107.327 69.9926V71.7394C107.327 73.0795 106.438 74.257 105.149 74.6244L103.355 75.136C102.492 75.382 101.565 75.2291 100.827 74.7192L96.5899 71.7916C95.412 70.9778 93.8231 71.1097 92.7955 72.1067L89.8541 74.9607C88.6668 76.1128 88.6362 78.0086 89.7857 79.1983L91.1795 80.6408C92.1553 81.6507 92.2999 83.2024 91.5276 84.3752L89.3566 87.6724C88.8016 88.5153 87.8601 89.0226 86.8509 89.0226H84.7465C83.2695 89.0226 82.0122 90.0977 81.7829 91.5568L81.1258 95.7375C80.8674 97.381 81.9959 98.9208 83.6408 99.1696L85.3259 99.4244C86.3342 99.5768 87.1961 100.231 87.6139 101.161L88.6755 103.525C89.1332 104.544 88.9869 105.732 88.2961 106.61L85.2291 110.505" stroke="currentColor" stroke-width="2" stroke-linecap="round"/>
<path d="M130.476 152.663L128.749 153.733C127.866 154.28 127.328 155.244 127.328 156.283V158.663C127.328 159.891 128.076 160.995 129.216 161.45L129.783 161.676C131.122 162.21 131.891 163.621 131.616 165.036L131.23 167.015C130.955 168.424 129.721 169.441 128.285 169.441H125.017C124.073 169.441 123.185 169.885 122.618 170.639L121.899 171.596C121.153 172.589 121.096 173.938 121.755 174.99L122.751 176.581C123.679 178.062 123.149 180.02 121.601 180.831L119.428 181.969C117.992 182.722 116.218 182.197 115.422 180.785L114.283 178.763C113.751 177.82 112.752 177.236 111.669 177.236H108.615C107.379 177.236 106.269 177.995 105.82 179.147L104.906 181.491C104.337 182.952 102.739 183.728 101.239 183.273L98.2643 182.369C96.5813 181.858 95.6971 180.015 96.3515 178.383L96.8496 177.14C97.398 175.771 96.8709 174.207 95.6061 173.45L93.6109 172.255C92.6765 171.696 91.5064 171.711 90.5871 172.295C89.147 173.209 87.232 172.679 86.4678 171.154L85.3818 168.986C84.6586 167.543 85.2075 165.786 86.6237 165.011L88.4316 164.021C89.3933 163.495 89.9913 162.486 89.9913 161.39V158.572C89.9913 157.529 89.4498 156.561 88.5613 156.016L87.2974 155.239C86.0072 154.447 85.5096 152.817 86.1372 151.439L86.7779 150.033C87.4136 148.637 88.9997 147.945 90.4551 148.43L91.3568 148.73C92.6775 149.169 94.1269 148.642 94.8574 147.458L95.6877 146.111C96.2829 145.146 96.2829 143.927 95.6877 142.962L95.1411 142.075C94.2889 140.693 94.6909 138.884 96.0481 137.993L98.0672 136.667C99.5549 135.691 101.561 136.216 102.378 137.797L103.059 139.112C103.574 140.108 104.602 140.734 105.723 140.734H109.334C110.635 140.734 111.788 139.895 112.189 138.657L112.439 137.881C112.972 136.234 114.784 135.378 116.395 136.014L118.992 137.038C120.465 137.619 121.233 139.247 120.744 140.754L120.174 142.512C119.781 143.724 120.198 145.053 121.212 145.825L121.717 146.208C122.783 147.019 124.258 147.025 125.33 146.222L126.037 145.693C127.514 144.587 129.63 145.065 130.49 146.698L131.551 148.716C132.284 150.11 131.815 151.833 130.476 152.663Z" stroke="#2563EB" stroke-width="2"/>
<path d="M113.916 135.791L118.274 137.678C119.692 138.292 120.412 139.883 119.937 141.353L119.388 143.052C118.997 144.263 119.412 145.588 120.423 146.36L120.822 146.664C121.89 147.479 123.369 147.485 124.444 146.678L124.997 146.263C126.475 145.152 128.597 145.631 129.455 147.269L130.415 149.1C131.145 150.492 130.677 152.211 129.342 153.041L127.751 154.03C126.87 154.577 126.335 155.541 126.335 156.578V158.82C126.335 160.046 127.081 161.149 128.219 161.605L128.666 161.784C130.002 162.319 130.77 163.728 130.496 165.141L130.142 166.961C129.868 168.371 128.634 169.389 127.197 169.389H124.129C123.184 169.389 122.294 169.834 121.728 170.591L121.079 171.457C120.336 172.448 120.279 173.793 120.935 174.844L121.844 176.301C122.768 177.78 122.239 179.733 120.695 180.544L118.723 181.581C117.285 182.337 115.507 181.811 114.712 180.395L113.664 178.53C113.133 177.585 112.133 176.999 111.048 176.999H108.247C106.979 176.999 105.847 177.797 105.421 178.992L104.278 182.197" stroke="#2563EB" stroke-width="2" stroke-linecap="round"/>
<path d="M65.7027 84.3928C66.2646 82.0842 68.442 78.0976 70.013 74.6127C70.4698 73.5994 73.1421 73.5521 73.5351 74.5919C75.1265 78.8025 76.711 82.536 77.2415 84.3928C77.9826 86.9864 78.2261 93.5161 71.7029 93.3941C65.1796 93.272 64.9847 87.3424 65.7027 84.3928Z" fill="#2563EB"/>
<path d="M77.8051 59.494C78.1101 58.2498 79.1075 56.2918 80.0454 54.352C80.5287 53.3525 83.3963 53.3518 83.8019 54.3852C84.6681 56.5916 85.4419 58.465 85.7381 59.494C86.2475 61.2642 86.415 65.721 81.9302 65.6377C77.4455 65.5544 77.3115 61.5072 77.8051 59.494Z" fill="#2563EB"/>
<path d="M81.8008 41.477L87.477 31.7687C87.9907 30.8902 88.7602 30.1893 89.6827 29.7597L108.403 21.0423C110.237 20.1884 112.482 20.5229 113.326 22.361C113.531 22.8075 113.715 23.2938 113.859 23.8141C114.406 25.7917 112.823 27.5289 110.84 28.0553L93.6517 32.6165C92.4402 32.938 91.3936 33.7028 90.7193 34.7595L85.5721 42.8255" stroke="currentColor" stroke-width="2" stroke-linecap="round"/>
<path d="M86.3481 43.2714C86.7229 41.4592 82.6035 40.0094 81.1054 40.7343C79.982 41.4592 81.1056 42.909 82.978 43.6339C84.4759 44.2138 86.3481 43.9963 86.3481 43.2714Z" fill="currentColor"/>
<path d="M111.137 19.8998C111.389 15.0904 115.24 5.15493 128.328 1.61836C130.013 1.16307 131.795 1.77969 132.806 3.20193C136.242 8.03181 140.579 16.9106 140.048 27.0475C139.94 29.0972 138.376 30.7364 136.349 31.0536C128.665 32.2556 117.641 32.4655 114.185 27.0456" stroke="currentColor" stroke-width="2" stroke-linecap="round"/>
</svg>
