<svg width="361" height="458" viewBox="0 0 361 458" fill="none" xmlns="http://www.w3.org/2000/svg">
<g clip-path="url(#clip0_1_429)">
<path d="M174.383 99.5988C172.186 99.8623 170.117 100.925 168.398 102.489C166.107 104.575 164.351 107.56 163.39 111.054C163.336 111.251 163.317 111.457 163.334 111.661C163.855 118.006 165.796 124.556 168.756 129.896C168.925 130.2 169.18 130.447 169.49 130.605C170.387 131.063 171.353 131.364 172.353 131.497C175.771 131.954 179.04 130.364 181.469 127.726C183.897 125.087 185.606 121.366 186.174 117.116C186.742 112.866 186.069 108.829 184.418 105.646C182.767 102.462 180.032 100.069 176.615 99.6125C175.863 99.5119 175.115 99.5113 174.383 99.5988ZM176.15 103.083C178.228 103.361 180.044 104.816 181.31 107.257C182.576 109.698 183.185 113.061 182.705 116.653C182.225 120.246 180.755 123.332 178.892 125.355C177.03 127.378 174.896 128.304 172.818 128.027C172.379 127.968 171.986 127.8 171.588 127.644C169.104 122.977 167.385 117.229 166.885 111.7C167.706 108.914 169.107 106.578 170.756 105.077C172.465 103.521 174.32 102.839 176.15 103.083Z" fill="black"/>
<path d="M147.972 98.745C144.554 98.2882 141.286 99.8761 138.857 102.514C136.429 105.153 134.719 108.873 134.151 113.125C133.582 117.377 134.255 121.416 135.906 124.599C137.557 127.783 140.293 130.173 143.711 130.63C147.129 131.086 150.397 129.498 152.826 126.86C155.254 124.222 156.962 120.501 157.531 116.249C158.099 111.997 157.428 107.959 155.777 104.775C154.126 101.592 151.39 99.2018 147.972 98.745ZM147.508 102.214C149.588 102.492 151.404 103.947 152.669 106.388C153.934 108.828 154.542 112.191 154.061 115.786C153.581 119.381 152.112 122.466 150.25 124.488C148.388 126.511 146.255 127.438 144.175 127.16C142.095 126.882 140.278 125.427 139.012 122.987C137.747 120.546 137.139 117.184 137.62 113.589C138.1 109.994 139.569 106.908 141.431 104.886C143.293 102.863 145.428 101.936 147.508 102.214Z" fill="black"/>
<path d="M179.324 88.4484C172.746 88.3418 168.061 91.6911 165.633 96.5265C163.204 101.362 162.743 107.551 163.556 113.773C164.37 119.994 166.483 126.264 169.549 131.267C172.614 136.269 176.682 140.127 181.631 140.915C181.858 140.951 182.09 140.943 182.313 140.889C182.537 140.836 182.747 140.739 182.934 140.604C183.12 140.469 183.277 140.299 183.398 140.103C183.518 139.907 183.598 139.689 183.635 139.462C183.707 139.004 183.595 138.536 183.322 138.16C183.05 137.785 182.639 137.533 182.181 137.46C178.746 136.913 175.288 133.931 172.533 129.437C169.778 124.942 167.778 119.059 167.027 113.318C166.277 107.576 166.802 101.993 168.76 98.0968C170.717 94.2003 173.818 91.858 179.267 91.9464C179.731 91.9538 180.179 91.7767 180.512 91.454C180.845 91.1314 181.037 90.6895 181.045 90.2257C181.052 89.7619 180.875 89.3142 180.552 88.9809C180.23 88.6476 179.788 88.4561 179.324 88.4484Z" fill="black"/>
<path d="M161.101 104.759C157.123 105.112 154.34 107.173 154.34 107.173C154.154 107.308 153.997 107.479 153.877 107.675C153.757 107.871 153.677 108.089 153.642 108.316C153.606 108.543 153.616 108.775 153.67 108.999C153.724 109.222 153.821 109.433 153.957 109.618C154.092 109.804 154.263 109.961 154.459 110.081C154.655 110.201 154.873 110.281 155.1 110.316C155.327 110.352 155.559 110.342 155.782 110.288C156.006 110.234 156.216 110.137 156.402 110.001C156.402 110.001 160.123 107.346 164.533 108.501C164.755 108.559 164.987 108.573 165.215 108.542C165.443 108.511 165.662 108.435 165.86 108.319C166.059 108.203 166.232 108.049 166.371 107.865C166.51 107.682 166.612 107.473 166.67 107.251C166.728 107.029 166.742 106.797 166.711 106.569C166.679 106.342 166.604 106.122 166.487 105.924C166.371 105.725 166.217 105.552 166.034 105.413C165.851 105.274 165.642 105.173 165.42 105.114C163.887 104.713 162.428 104.641 161.101 104.759Z" fill="black"/>
<path d="M145.67 87.423C139.987 88.1349 135.368 90.9911 131.236 94.1222C130.866 94.4025 130.623 94.8182 130.56 95.2779C130.496 95.7375 130.618 96.2035 130.898 96.5734C131.178 96.9432 131.594 97.1864 132.054 97.2498C132.513 97.3132 132.979 97.1915 133.349 96.9113C138.634 92.9062 143.803 89.8947 151.232 90.9601C151.46 90.9927 151.691 90.9801 151.914 90.9232C152.137 90.8662 152.346 90.7659 152.53 90.6281C152.714 90.4903 152.869 90.3176 152.986 90.1199C153.103 89.9222 153.18 89.7033 153.213 89.4758C153.245 89.2483 153.233 89.0165 153.176 88.7939C153.119 88.5712 153.018 88.3621 152.881 88.1782C152.743 87.9942 152.57 87.8393 152.372 87.7221C152.175 87.6049 151.956 87.5279 151.728 87.4953C149.576 87.1867 147.564 87.1854 145.67 87.423Z" fill="black"/>
<path d="M87.5837 104.71C87.3543 104.695 87.1241 104.726 86.9065 104.8C86.6888 104.874 86.488 104.99 86.3153 105.142C86.1426 105.294 86.0015 105.478 85.9001 105.685C85.7987 105.891 85.739 106.115 85.7244 106.345C85.7095 106.574 85.7401 106.804 85.8142 107.022C85.8883 107.24 86.0046 107.441 86.1564 107.613C86.3082 107.786 86.4926 107.927 86.699 108.028C86.9053 108.13 87.1297 108.19 87.3591 108.204L136.635 111.374C136.864 111.389 137.094 111.358 137.312 111.284C137.529 111.21 137.73 111.094 137.903 110.942C138.076 110.79 138.217 110.606 138.318 110.4C138.419 110.193 138.479 109.969 138.494 109.739C138.509 109.51 138.478 109.28 138.404 109.062C138.33 108.844 138.214 108.644 138.062 108.471C137.91 108.298 137.726 108.157 137.519 108.056C137.313 107.954 137.089 107.895 136.859 107.88L87.5837 104.71Z" fill="black"/>
<path d="M132.83 155.302C132.389 155.16 131.909 155.198 131.496 155.409C131.291 155.514 131.109 155.658 130.961 155.833C130.812 156.008 130.699 156.211 130.628 156.43C130.558 156.648 130.531 156.879 130.549 157.108C130.568 157.337 130.631 157.56 130.736 157.765C134.638 165.382 141.807 169.673 151.293 170.696C151.754 170.746 152.216 170.611 152.578 170.32C152.939 170.029 153.17 169.607 153.22 169.146C153.245 168.917 153.225 168.686 153.16 168.465C153.095 168.245 152.988 168.039 152.843 167.86C152.699 167.681 152.521 167.532 152.319 167.422C152.118 167.312 151.896 167.242 151.668 167.218C142.993 166.282 137.223 162.752 133.851 156.169C133.746 155.965 133.602 155.783 133.427 155.634C133.252 155.485 133.049 155.372 132.83 155.302Z" fill="black"/>
<path d="M169.16 143.228C168.93 143.225 168.702 143.268 168.489 143.354C168.276 143.44 168.081 143.567 167.917 143.728C167.753 143.889 167.622 144.08 167.532 144.292C167.442 144.503 167.395 144.73 167.392 144.96C167.212 163.458 160.747 181.143 148.935 190.304C137.124 199.465 119.853 200.684 96.4861 185.597C96.293 185.472 96.0771 185.387 95.851 185.345C95.6249 185.304 95.3928 185.308 95.1681 185.356C94.9434 185.405 94.7304 185.497 94.5413 185.628C94.3522 185.758 94.1908 185.925 94.0661 186.118C93.9413 186.311 93.8558 186.527 93.8143 186.753C93.7729 186.979 93.7764 187.211 93.8246 187.436C93.8729 187.661 93.9649 187.874 94.0955 188.063C94.2261 188.252 94.3926 188.413 94.5857 188.538C118.704 204.111 138.052 203.174 151.08 193.069C164.108 182.965 170.704 164.278 170.892 144.995C170.895 144.765 170.852 144.537 170.766 144.324C170.68 144.111 170.553 143.917 170.392 143.753C170.231 143.588 170.04 143.458 169.828 143.368C169.617 143.277 169.39 143.23 169.16 143.228Z" fill="black"/>
<path d="M59.5135 183.484C59.0773 183.325 58.5961 183.346 58.1756 183.543C57.7554 183.739 57.4304 184.094 57.2718 184.53C57.1132 184.965 57.1341 185.446 57.3299 185.867C69.1653 211.234 94.8402 222.166 129.836 222.337C130.3 222.339 130.745 222.157 131.075 221.831C131.404 221.505 131.591 221.061 131.594 220.597C131.595 220.367 131.551 220.14 131.464 219.927C131.377 219.714 131.25 219.52 131.088 219.357C130.926 219.194 130.734 219.063 130.522 218.974C130.31 218.885 130.083 218.839 129.853 218.837C95.5649 218.669 71.6863 208.361 60.5017 184.388C60.4045 184.18 60.2671 183.993 60.0976 183.838C59.928 183.683 59.7295 183.562 59.5135 183.484Z" fill="black"/>
<path d="M51.7517 190.778C51.5217 190.781 51.2945 190.829 51.083 190.919C50.8715 191.01 50.68 191.141 50.5193 191.306C47.875 194.017 45.2724 198.091 43.9959 202.665C42.7194 207.239 42.84 212.449 46.0252 216.784C70.1833 249.615 89.0573 253.262 110.429 255.12C122.449 256.165 131.335 250.853 137.271 244.171C143.207 237.49 146.366 229.508 147.543 224.564C151.23 209.078 142.285 195.798 142.285 195.798C142.157 195.607 141.993 195.443 141.802 195.315C141.611 195.187 141.397 195.098 141.171 195.053C140.946 195.008 140.714 195.008 140.488 195.052C140.263 195.097 140.048 195.186 139.857 195.314C139.471 195.571 139.203 195.971 139.112 196.426C139.021 196.881 139.114 197.353 139.371 197.74C139.371 197.74 147.424 209.959 144.138 223.753H144.136C143.095 228.128 140.07 235.751 134.654 241.847C129.238 247.943 121.604 252.579 110.732 251.634C89.5429 249.792 72.5743 246.959 48.8454 214.712H48.8435C46.4172 211.408 46.2833 207.491 47.3668 203.609C48.4506 199.725 50.8214 196.01 53.0251 193.751C53.3491 193.419 53.5278 192.972 53.522 192.507C53.5161 192.043 53.3261 191.601 52.9938 191.277C52.6618 190.953 52.2151 190.775 51.7517 190.781L51.7517 190.778Z" fill="black"/>
<path d="M65.3884 0.0421343C62.7914 0.125134 60.0987 0.324622 57.3083 0.659322C37.8 2.99922 12.1245 20.5659 7.42749 71.2453C6.6524 79.606 5.25156 99.44 10.9451 117.732C13.7918 126.877 18.4372 135.672 25.9099 142.347C33.3827 149.022 43.6684 153.504 57.4392 154.116C72.774 154.804 84.4338 144.377 90.9197 134.788C90.9203 134.788 90.921 134.788 90.9217 134.788C91.1735 134.415 91.393 134.023 91.494 133.482C91.5949 132.94 91.469 132.187 91.0975 131.681C90.3545 130.67 89.5325 130.639 88.8358 130.525C87.4423 130.296 85.8148 130.298 84.1678 129.997C81.2962 129.464 77.1952 128.444 74.2127 125.153C71.229 121.862 69.0876 116.134 70.8045 105.304C71.5403 100.665 75.0472 97.4088 78.9568 96.8624C82.8665 96.3162 87.3731 98.2416 90.4998 105.261C93.8565 112.792 96.4572 118.293 98.9276 121.784C100.163 123.53 101.361 124.829 102.875 125.536C104.389 126.244 106.267 126.052 107.685 125.105C110.7 123.092 112.268 118.673 112.853 113.28C113.35 108.704 112.838 103.397 110.896 98.3157C116.036 98.5124 120.385 97.0477 123.234 93.4856C126.243 89.7233 127.508 84.0203 127.447 76.5304C133.744 79.5449 162.946 91.8754 199.57 77.1946C209.199 73.3364 217.692 67.4204 223.808 60.6282C229.925 53.8359 233.719 46.1279 233.58 38.6164C233.516 35.1661 233.093 26.2275 225.365 18.214C217.637 10.2005 202.857 3.22021 174.721 2.58901C165.727 2.38171 141.292 5.64325 120.346 22.9874C119.019 21.1861 114.965 15.9806 106.178 10.4407C97.0378 4.67859 83.5676 -0.535691 65.3885 0.0442095L65.3884 0.0421343ZM65.5037 3.53627C82.9673 2.96767 95.6709 7.95286 104.31 13.3996C114.184 19.6243 118.623 26.3546 118.623 26.3546C118.76 26.5618 118.94 26.7373 119.151 26.8694C119.362 27.0015 119.598 27.0872 119.844 27.1209C120.091 27.1545 120.341 27.1352 120.58 27.0644C120.818 26.9935 121.038 26.8728 121.226 26.7101C141.572 9.1081 166.479 5.89896 174.64 6.08706C174.641 6.08706 174.642 6.08706 174.642 6.08706C202.229 6.70586 215.961 13.5027 222.846 20.6417C229.73 27.7806 230.021 35.3692 230.082 38.6789C230.198 44.9474 226.92 51.9415 221.209 58.2843C215.497 64.627 207.407 70.2806 198.267 73.9425C158.545 89.8651 126.533 72.3117 126.533 72.3117C126.26 72.1627 125.952 72.0893 125.641 72.0989C125.33 72.1085 125.027 72.2008 124.764 72.3664C124.5 72.5319 124.286 72.7646 124.142 73.0407C123.999 73.3167 123.931 73.6259 123.947 73.9367C124.382 82.4545 123.023 88.1408 120.5 91.296C117.976 94.4512 114.231 95.5664 108.513 94.6691C108.196 94.6196 107.87 94.6586 107.573 94.782C107.276 94.9054 107.018 95.1084 106.829 95.3686C106.64 95.6288 106.526 95.9361 106.5 96.2569C106.474 96.5776 106.537 96.8994 106.681 97.1867C109.261 102.299 109.894 108.104 109.373 112.902C108.852 117.699 106.891 121.425 105.742 122.193C105.079 122.635 104.926 122.629 104.355 122.362C103.785 122.096 102.844 121.26 101.783 119.761C99.6609 116.762 97.0354 111.325 93.6971 103.835C90.1288 95.8245 83.975 92.625 78.4725 93.3937C72.9699 94.1625 68.3137 98.6618 67.3475 104.753C65.5274 116.233 67.8117 123.301 71.619 127.501C75.4262 131.702 80.4778 132.872 83.533 133.439C83.535 133.439 83.537 133.439 83.539 133.439C85.0976 133.723 86.2131 133.766 87.1894 133.853C81.0258 142.48 70.7277 151.207 57.5956 150.618C44.4975 150.036 35.1125 145.874 28.2421 139.737C21.3718 133.601 17.0018 125.414 14.287 116.693C8.85757 99.2491 10.1511 79.7988 10.914 71.5695C15.511 21.969 39.8829 6.27598 57.7245 4.13588C60.4157 3.81308 63.0089 3.61748 65.5037 3.53627Z" fill="black"/>
<path fill-rule="evenodd" clip-rule="evenodd" d="M111.246 107.987L93.1218 106.827C92.7888 106.087 92.4479 105.327 92.0989 104.547C85.4039 89.5173 70.7779 94.2973 69.0759 105.027C65.5389 127.337 77.9258 130.617 83.8529 131.717C87.5189 132.387 90.8449 131.767 89.4699 133.807C83.1999 143.077 72.0139 153.017 57.5169 152.367C3.77886 149.977 7.63285 87.9973 9.17085 71.4073C13.8178 21.2673 38.8419 4.63729 57.5169 2.39729C101.369 -2.86271 120.081 25.3873 120.081 25.3873C140.875 7.39728 166.004 4.13735 174.681 4.33735C230.404 5.58735 231.706 31.8873 231.831 38.6473C232.086 52.4273 217.687 68.0473 198.919 75.5673C158.48 91.7773 125.694 73.8472 125.694 73.8472C126.587 91.3172 120.413 98.3073 108.243 96.3973C110.131 100.137 111.037 104.177 111.246 107.987Z" fill="black"/>
<path d="M120.371 250.942C120.165 251.046 119.982 251.188 119.832 251.362C119.681 251.536 119.567 251.738 119.494 251.956C119.422 252.174 119.393 252.404 119.41 252.634C119.427 252.863 119.488 253.087 119.592 253.292C119.592 253.292 123.565 261.227 125.877 267.29C126.042 267.724 126.373 268.074 126.796 268.263C127.22 268.453 127.701 268.467 128.135 268.302C128.568 268.136 128.918 267.806 129.108 267.382C129.298 266.959 129.311 266.478 129.146 266.044C126.722 259.687 122.72 251.722 122.72 251.722C122.617 251.516 122.475 251.333 122.301 251.183C122.127 251.032 121.925 250.918 121.707 250.845C121.489 250.773 121.259 250.744 121.029 250.761C120.8 250.778 120.576 250.839 120.371 250.942Z" fill="black"/>
<path d="M134.342 303.304C131.628 303.304 129.324 305.478 129.324 308.196C129.324 310.915 131.628 313.091 134.342 313.091C137.055 313.091 139.357 310.915 139.357 308.196C139.357 305.478 137.055 303.304 134.342 303.304ZM134.342 306.804C135.235 306.804 135.857 307.443 135.857 308.196C135.857 308.949 135.235 309.591 134.342 309.591C133.448 309.591 132.824 308.949 132.824 308.196C132.824 307.443 133.448 306.804 134.342 306.804Z" fill="black"/>
<path d="M149.119 302.405C146.756 302.405 144.738 304.307 144.738 306.689C144.738 309.07 146.756 310.97 149.119 310.97C151.482 310.97 153.5 309.07 153.5 306.689C153.5 304.307 151.482 302.405 149.119 302.405ZM149.119 305.909C149.66 305.909 149.998 306.274 149.998 306.689C149.998 307.103 149.66 307.468 149.119 307.468C148.577 307.468 148.24 307.103 148.24 306.689C148.24 306.274 148.577 305.909 149.119 305.909Z" fill="black"/>
<path d="M130.051 257.919C129.831 257.85 129.6 257.824 129.371 257.845C129.142 257.865 128.919 257.93 128.715 258.036C128.304 258.251 127.994 258.62 127.855 259.062C127.716 259.505 127.758 259.984 127.972 260.396C127.972 260.396 142.388 288.212 146.519 304.732C146.575 304.955 146.674 305.164 146.811 305.349C146.948 305.534 147.12 305.69 147.317 305.808C147.514 305.926 147.733 306.005 147.96 306.038C148.187 306.072 148.419 306.061 148.642 306.005C149.092 305.892 149.479 305.605 149.718 305.207C149.956 304.809 150.027 304.332 149.914 303.882C145.547 286.421 131.076 258.778 131.076 258.778C130.861 258.367 130.493 258.058 130.051 257.919Z" fill="black"/>
<path d="M118.689 259.847C118.241 259.968 117.859 260.261 117.628 260.664C117.397 261.066 117.334 261.543 117.455 261.991C117.455 261.991 119.671 270.243 122.523 279.855C125.375 289.467 128.815 300.366 131.461 306.046C131.657 306.467 132.012 306.792 132.447 306.951C132.883 307.11 133.364 307.089 133.785 306.894C133.993 306.797 134.181 306.66 134.336 306.49C134.492 306.321 134.612 306.122 134.691 305.906C134.769 305.69 134.805 305.461 134.795 305.231C134.785 305.001 134.73 304.776 134.633 304.568C132.229 299.408 128.716 288.423 125.879 278.861C123.041 269.298 120.834 261.083 120.834 261.083C120.774 260.861 120.671 260.653 120.531 260.471C120.391 260.288 120.217 260.136 120.018 260.021C119.818 259.906 119.599 259.832 119.371 259.802C119.143 259.772 118.911 259.787 118.689 259.847Z" fill="black"/>
<path d="M51.6345 219.685C39.1507 220.806 28.1709 228.584 19.7498 239.15C11.3286 249.715 5.39406 263.125 3.00758 275.999C-6.22819 325.816 6.39379 382.291 32.824 420.218C45.9685 439.08 55.8798 447.955 66.0134 452.269C76.1471 456.582 86.1417 456.25 99.3064 457.243C143.876 460.593 176.814 442.685 176.814 442.685C177.09 442.535 177.32 442.314 177.481 442.044C177.642 441.775 177.727 441.467 177.728 441.153C177.828 415.608 175.033 400.729 172.131 392.122C170.679 387.819 169.2 385.083 168.031 383.386C166.862 381.689 165.822 380.905 165.822 380.905C165.566 380.725 165.265 380.617 164.953 380.593C121.921 377.24 66.2341 393.284 66.2341 393.284C66.0131 393.348 65.8068 393.454 65.6269 393.597C65.447 393.74 65.297 393.918 65.1857 394.119C65.0743 394.32 65.0037 394.541 64.9778 394.77C64.9519 394.998 64.9714 395.229 65.0349 395.45C65.163 395.896 65.4629 396.273 65.8687 396.498C66.2745 396.723 66.753 396.777 67.199 396.65C67.199 396.65 122.203 380.996 164.058 384.066C164.179 384.157 164.37 384.24 165.148 385.37C166.103 386.758 167.45 389.194 168.814 393.239C171.499 401.201 174.208 415.509 174.201 440.052C171.691 441.371 141.283 456.887 99.5701 453.753H99.5681C86.224 452.746 76.6843 453.007 67.3845 449.048C58.0841 445.089 48.6624 436.824 35.695 418.216C9.90125 381.203 -2.59529 325.419 6.44892 276.636C8.72444 264.36 14.468 251.391 22.486 241.331C30.5041 231.272 40.7239 224.179 51.947 223.171C52.1759 223.15 52.3985 223.085 52.6021 222.978C52.8057 222.872 52.9863 222.726 53.1336 222.549C53.2809 222.373 53.3919 222.169 53.4605 221.95C53.529 221.73 53.5536 221.5 53.5329 221.271C53.4913 220.809 53.2679 220.382 52.9119 220.085C52.556 219.787 52.0965 219.643 51.6345 219.685Z" fill="black"/>
<path d="M51.9978 270.667C51.7745 270.722 51.5642 270.82 51.3788 270.956C51.1935 271.092 51.0368 271.263 50.9177 271.46C50.7984 271.657 50.719 271.874 50.684 272.102C50.649 272.329 50.659 272.561 50.7136 272.784C50.7682 273.007 50.8663 273.218 51.0022 273.403C51.1381 273.588 51.3091 273.745 51.5056 273.864C60.3892 279.254 65.5679 287.8 69.2869 297.593C73.0058 307.386 75.1957 318.344 78.1658 328.202C84.2772 348.485 86.164 376.169 86.6462 383.993C80.2704 378.266 70.7087 378.067 70.7087 378.067C70.4789 378.061 70.25 378.1 70.0352 378.182C69.8204 378.264 69.6239 378.387 69.4568 378.545C69.2898 378.703 69.1555 378.893 69.0616 379.103C68.9678 379.312 68.9162 379.539 68.9099 379.769C68.9034 379.998 68.9422 380.227 69.0242 380.442C69.1062 380.657 69.2297 380.854 69.3877 381.021C69.5457 381.188 69.735 381.322 69.9449 381.416C70.1549 381.51 70.3812 381.561 70.6111 381.567C70.6111 381.567 83.3192 382.178 87.2966 390.362C87.4729 390.725 87.7691 391.016 88.1352 391.186C88.5012 391.355 88.9147 391.393 89.3055 391.293C89.6963 391.193 90.0404 390.961 90.2798 390.636C90.5191 390.311 90.6389 389.914 90.6189 389.511C90.6189 389.511 88.7865 351.318 81.5173 327.192C78.6184 317.57 76.4214 306.523 72.5583 296.351C68.6953 286.178 63.0954 276.8 53.322 270.87C53.1254 270.751 52.9073 270.672 52.6801 270.637C52.4529 270.602 52.221 270.612 51.9978 270.667Z" fill="black"/>
<path d="M28.8924 409.07C28.4288 409.049 27.9761 409.214 27.6341 409.528C27.292 409.841 27.0884 410.278 27.0681 410.741C27.0681 410.741 25.9467 436.029 26.7595 448.868C26.7892 449.331 27.0014 449.764 27.3498 450.07C27.6981 450.377 28.1539 450.533 28.617 450.503C29.08 450.474 29.5126 450.262 29.8195 449.914C30.1264 449.566 30.2826 449.111 30.2537 448.648C29.4725 436.307 30.5642 410.894 30.5642 410.894C30.5844 410.43 30.4195 409.978 30.106 409.635C29.7925 409.293 29.3559 409.09 28.8924 409.07Z" fill="black"/>
<path d="M267.494 346.101C264.448 345.929 260.932 346.706 257.347 347.692C252.568 349.007 247.769 350.858 244.603 352.146C238.759 354.522 232.965 354.181 232.965 354.181C232.502 354.151 232.046 354.307 231.697 354.614C231.349 354.92 231.137 355.352 231.107 355.816C231.078 356.279 231.233 356.734 231.54 357.083C231.847 357.431 232.279 357.643 232.742 357.673C232.742 357.673 239.224 358.111 245.922 355.388C249.026 354.125 253.731 352.318 258.275 351.067C262.82 349.817 267.304 349.29 269.273 349.939C269.906 350.147 270 350.263 270.365 350.441C270.168 350.496 270.034 350.568 269.822 350.609C268.247 350.907 264.383 351.894 260.48 353.097C258.529 353.698 256.595 354.347 254.976 354.993C253.358 355.64 252.138 356.11 251.146 357.099C250.818 357.426 250.633 357.871 250.632 358.335C250.631 358.799 250.815 359.245 251.142 359.573C251.47 359.901 251.915 360.086 252.38 360.086C252.844 360.086 253.289 359.901 253.617 359.573C253.638 359.552 254.801 358.83 256.275 358.241C257.749 357.653 259.617 357.022 261.511 356.439C265.3 355.271 269.305 354.264 270.474 354.042C271.284 353.889 272.076 353.658 272.806 353.3C273.536 352.941 274.325 352.495 274.734 351.403C274.939 350.858 274.937 350.149 274.716 349.585C274.496 349.022 274.132 348.608 273.726 348.267C272.915 347.585 271.87 347.105 270.369 346.61C269.473 346.315 268.509 346.154 267.494 346.097L267.494 346.101Z" fill="black"/>
<path d="M271.83 350.355C271.61 350.287 271.379 350.263 271.15 350.284C270.921 350.305 270.699 350.372 270.495 350.479C270.292 350.586 270.112 350.733 269.965 350.91C269.819 351.087 269.708 351.291 269.64 351.511C269.504 351.954 269.549 352.434 269.766 352.844C269.982 353.254 270.353 353.562 270.797 353.698C270.797 353.698 271.931 354.057 272.937 354.567C273.239 354.72 273.401 354.857 273.619 355.007C273.571 355.04 273.571 355.059 273.515 355.091C272.896 355.453 271.948 355.878 270.886 356.292C268.763 357.12 266.188 357.92 264.33 358.591C264.328 358.591 264.326 358.591 264.324 358.591C262.207 359.364 259.235 360.752 256.49 362.228C253.745 363.703 251.383 365.038 250.033 366.55C249.724 366.896 249.565 367.351 249.591 367.814C249.617 368.277 249.826 368.711 250.172 369.021C250.518 369.33 250.972 369.489 251.436 369.463C251.899 369.437 252.333 369.228 252.642 368.882C253.069 368.404 255.528 366.717 258.146 365.31C260.762 363.904 263.689 362.55 265.517 361.882H265.523C267.24 361.263 269.861 360.448 272.158 359.552C273.308 359.104 274.377 358.641 275.281 358.113C276.185 357.584 277.104 357.122 277.48 355.736C277.819 354.49 277.126 353.386 276.508 352.786C275.888 352.186 275.195 351.789 274.519 351.447C273.169 350.762 271.83 350.355 271.83 350.355Z" fill="black"/>
<path d="M273.164 356.108C272.966 355.992 272.746 355.916 272.519 355.884C272.291 355.852 272.059 355.865 271.836 355.923C271.614 355.981 271.405 356.082 271.221 356.221C271.038 356.36 270.884 356.533 270.767 356.732C270.533 357.132 270.466 357.609 270.583 358.058C270.7 358.507 270.99 358.891 271.39 359.126C271.39 359.126 272.053 359.58 272.338 360.009C272.48 360.223 272.494 360.332 272.488 360.396C272.482 360.459 272.475 360.645 271.986 361.077C271.043 361.912 267.827 363.384 263.488 365.409C259.149 367.434 253.602 370.183 247.486 374.306C247.295 374.434 247.132 374.599 247.005 374.791C246.878 374.982 246.79 375.197 246.746 375.423C246.703 375.648 246.704 375.88 246.749 376.106C246.795 376.331 246.885 376.545 247.013 376.735C247.142 376.926 247.307 377.089 247.498 377.216C247.69 377.343 247.905 377.431 248.13 377.475C248.356 377.519 248.588 377.518 248.813 377.472C249.039 377.426 249.253 377.337 249.443 377.208C255.344 373.23 260.692 370.576 264.967 368.581C269.241 366.586 272.357 365.424 274.306 363.698C275.264 362.851 275.87 361.799 275.972 360.728C276.075 359.657 275.69 358.733 275.254 358.075C274.38 356.759 273.164 356.108 273.164 356.108Z" fill="black"/>
<path d="M269.148 362.829C268.922 362.873 268.708 362.961 268.516 363.088C268.324 363.215 268.159 363.379 268.031 363.569C267.903 363.76 267.813 363.974 267.768 364.2C267.722 364.425 267.721 364.657 267.766 364.883C267.81 365.109 267.898 365.323 268.026 365.515C268.153 365.706 268.317 365.871 268.508 365.999C268.508 365.999 269.002 366.389 269.215 366.786C269.321 366.985 269.345 367.106 269.326 367.241C269.307 367.376 269.243 367.626 268.779 368.075C268.779 368.075 268.777 368.075 268.777 368.075C268.776 368.076 268.778 368.075 268.777 368.075C268.355 368.48 266.81 369.599 264.863 370.866C262.914 372.134 260.497 373.637 258.011 375.183C253.041 378.274 247.882 381.455 245.312 383.575C241.078 387.059 237.132 387.173 232.922 387.007C232.92 387.007 232.919 387.007 232.918 387.007C230.793 386.928 227.285 386.743 223.824 386.693C220.363 386.642 217.039 386.676 214.75 387.224C212.972 387.647 211.549 388.85 209.24 390.562C206.929 392.275 204.029 394.526 200.584 397.001C193.692 401.952 184.634 407.794 174.052 411.903C173.838 411.987 173.642 412.111 173.476 412.27C173.31 412.429 173.177 412.619 173.084 412.829C172.991 413.04 172.941 413.266 172.936 413.496C172.931 413.726 172.971 413.955 173.054 414.169C173.137 414.384 173.262 414.579 173.421 414.746C173.58 414.912 173.77 415.045 173.98 415.138C174.191 415.23 174.417 415.281 174.647 415.286C174.877 415.291 175.106 415.25 175.32 415.167C186.316 410.897 195.614 404.88 202.625 399.843C206.13 397.325 209.067 395.049 211.326 393.374C213.584 391.699 215.462 390.651 215.56 390.628C215.562 390.628 215.563 390.628 215.564 390.628C217.031 390.277 220.402 390.143 223.773 390.193C227.144 390.242 230.607 390.424 232.789 390.505C237.189 390.678 242.468 390.449 247.539 386.277C247.539 386.277 247.54 386.277 247.541 386.277C249.624 384.557 254.89 381.248 259.859 378.157C262.344 376.612 264.776 375.102 266.773 373.802C268.771 372.502 270.267 371.5 271.205 370.599C271.205 370.599 271.206 370.599 271.207 370.599C272.098 369.74 272.652 368.737 272.793 367.728C272.933 366.719 272.659 365.805 272.299 365.134C271.578 363.791 270.461 363.097 270.461 363.097C270.076 362.838 269.604 362.742 269.148 362.831L269.148 362.829Z" fill="black"/>
<path d="M296.113 283.308C285.263 283.37 272.302 285.305 265.709 287.302C260.147 288.973 257.084 293.122 255.539 297.437H255.541C254.057 301.569 235.428 355.193 235.428 355.193C235.352 355.41 235.32 355.64 235.333 355.869C235.346 356.099 235.405 356.323 235.505 356.53C235.605 356.737 235.745 356.922 235.917 357.075C236.088 357.228 236.289 357.346 236.506 357.421C236.944 357.573 237.425 357.545 237.843 357.342C238.26 357.139 238.58 356.779 238.732 356.341C238.732 356.341 257.46 302.446 258.834 298.618C260.147 294.953 262.295 291.982 266.717 290.653H266.721C272.668 288.851 285.697 286.868 296.137 286.81C296.139 286.81 296.141 286.81 296.143 286.81C297.219 286.8 297.884 287.351 298.42 288.441C298.956 289.531 299.099 291.097 298.758 292.271C298.228 294.096 292.398 312.822 286.602 331.198C283.704 340.386 280.803 349.528 278.545 356.532C277.416 360.034 276.448 363.003 275.725 365.169C275.363 366.252 275.061 367.135 274.834 367.776C274.607 368.418 274.391 368.925 274.441 368.825C273.758 370.195 273.251 371.364 272.67 372.226C272.089 373.087 271.499 373.671 270.387 374.151H270.383C267.914 375.227 255.268 379.454 250.486 380.132C250.027 380.197 249.612 380.442 249.333 380.813C249.055 381.185 248.935 381.651 249 382.11C249.032 382.338 249.109 382.557 249.226 382.755C249.342 382.953 249.497 383.126 249.681 383.265C249.865 383.403 250.074 383.503 250.296 383.561C250.519 383.618 250.751 383.631 250.978 383.599C256.782 382.776 268.547 378.768 271.775 377.362H271.779C273.512 376.613 274.729 375.433 275.572 374.183C276.416 372.932 276.949 371.639 277.572 370.39C277.785 369.964 277.894 369.619 278.133 368.944C278.372 368.269 278.677 367.372 279.043 366.278C279.774 364.09 280.744 361.115 281.875 357.606C284.137 350.589 287.04 341.443 289.94 332.251C295.738 313.867 301.473 295.472 302.119 293.247C302.731 291.141 302.518 288.843 301.561 286.896C300.603 284.949 298.638 283.29 296.117 283.31L296.113 283.308Z" fill="black"/>
<path fill-rule="evenodd" clip-rule="evenodd" d="M273.75 304.675C273.75 304.992 273.701 305.306 273.608 305.599C273.514 305.893 273.377 306.159 273.204 306.384C273.032 306.608 272.826 306.786 272.601 306.908C272.375 307.029 272.133 307.092 271.889 307.092C271.644 307.092 271.402 307.029 271.176 306.908C270.951 306.786 270.745 306.608 270.573 306.384C270.4 306.159 270.263 305.893 270.169 305.599C270.076 305.306 270.028 304.992 270.028 304.675C270.028 304.357 270.076 304.043 270.169 303.75C270.263 303.456 270.4 303.19 270.573 302.965C270.745 302.741 270.951 302.563 271.176 302.442C271.402 302.32 271.644 302.258 271.889 302.258C272.133 302.258 272.375 302.32 272.601 302.442C272.826 302.563 273.032 302.741 273.204 302.965C273.377 303.19 273.514 303.456 273.608 303.75C273.701 304.043 273.75 304.357 273.75 304.675Z" fill="black"/>
<path fill-rule="evenodd" clip-rule="evenodd" d="M269.112 298.731C269.112 299.048 269.064 299.363 268.971 299.656C268.877 299.949 268.74 300.216 268.567 300.44C268.394 300.665 268.189 300.843 267.963 300.964C267.738 301.085 267.496 301.148 267.251 301.148C267.007 301.148 266.765 301.085 266.539 300.964C266.313 300.843 266.108 300.665 265.935 300.44C265.762 300.216 265.625 299.949 265.532 299.656C265.438 299.363 265.39 299.048 265.39 298.731C265.39 298.414 265.438 298.099 265.532 297.806C265.625 297.513 265.762 297.246 265.935 297.022C266.108 296.797 266.313 296.619 266.539 296.498C266.765 296.376 267.007 296.314 267.251 296.314C267.496 296.314 267.738 296.376 267.963 296.498C268.189 296.619 268.394 296.797 268.567 297.022C268.74 297.246 268.877 297.513 268.971 297.806C269.064 298.099 269.112 298.414 269.112 298.731Z" fill="black"/>
<path fill-rule="evenodd" clip-rule="evenodd" d="M265.52 310.096C265.52 310.413 265.472 310.728 265.378 311.021C265.285 311.314 265.148 311.58 264.975 311.805C264.802 312.029 264.597 312.207 264.371 312.329C264.145 312.45 263.903 312.513 263.659 312.513C263.414 312.513 263.172 312.45 262.947 312.329C262.721 312.207 262.516 312.029 262.343 311.805C262.17 311.58 262.033 311.314 261.939 311.021C261.846 310.728 261.798 310.413 261.798 310.096C261.798 309.778 261.846 309.464 261.939 309.171C262.033 308.878 262.17 308.611 262.343 308.387C262.516 308.162 262.721 307.984 262.947 307.863C263.172 307.741 263.414 307.679 263.659 307.679C263.903 307.679 264.145 307.741 264.371 307.863C264.597 307.984 264.802 308.162 264.975 308.387C265.148 308.611 265.285 308.878 265.378 309.171C265.472 309.464 265.52 309.778 265.52 310.096Z" fill="black"/>
<path d="M240.213 333.525C239.668 333.435 239.085 333.456 238.508 333.648C237.353 334.031 236.463 334.98 235.826 336.235C234.188 339.455 229.256 342.701 223.597 343.8H223.599C216.464 345.174 210.804 352.472 208.017 357.696C205.496 362.417 200.698 369.016 195.863 370.462C189.897 372.236 164.269 380.677 164.269 380.677C163.829 380.822 163.463 381.136 163.254 381.551C163.045 381.965 163.009 382.445 163.154 382.886C163.226 383.104 163.34 383.307 163.49 383.481C163.64 383.655 163.823 383.798 164.028 383.902C164.234 384.005 164.457 384.067 164.687 384.084C164.916 384.102 165.147 384.073 165.365 384.001C165.365 384.001 191.19 375.504 196.863 373.817H196.867C203.665 371.784 208.403 364.404 211.105 359.345C213.545 354.77 219.249 348.205 224.262 347.239H224.266C230.757 345.979 236.535 342.566 238.945 337.825H238.947C239.323 337.086 239.588 336.982 239.611 336.974C239.635 336.964 239.656 336.936 239.91 337.085C240.418 337.384 241.225 338.631 241.311 339.034C241.406 339.488 241.678 339.886 242.067 340.139C242.455 340.393 242.929 340.481 243.383 340.386C243.608 340.339 243.821 340.247 244.011 340.117C244.201 339.988 244.363 339.822 244.488 339.629C244.614 339.436 244.7 339.221 244.742 338.995C244.785 338.769 244.782 338.537 244.734 338.312C244.381 336.635 243.382 335.068 241.688 334.07C241.264 333.82 240.758 333.62 240.213 333.53L240.213 333.525Z" fill="black"/>
<path d="M156.615 255.101C156.152 255.131 155.72 255.345 155.414 255.694C155.108 256.043 154.954 256.499 154.984 256.962C154.984 256.962 156.083 274.238 165.435 289.827C174.308 304.615 183.46 332.238 195.111 364.157C195.27 364.593 195.596 364.948 196.017 365.144C196.438 365.339 196.919 365.36 197.355 365.2C197.791 365.041 198.145 364.715 198.341 364.295C198.536 363.875 198.557 363.394 198.398 362.958C186.769 331.098 177.745 303.539 168.437 288.027C159.612 273.316 158.476 256.732 158.476 256.732C158.446 256.269 158.232 255.836 157.883 255.531C157.534 255.225 157.078 255.07 156.615 255.101Z" fill="black"/>
<path d="M163.666 266.468C163.225 266.321 162.745 266.356 162.33 266.563C161.915 266.771 161.6 267.135 161.453 267.575C161.453 267.575 160.791 269.557 160.314 271.968C159.838 274.379 159.334 277.167 160.42 279.577C160.611 280 160.962 280.33 161.396 280.494C161.83 280.658 162.311 280.643 162.734 280.452C162.944 280.358 163.133 280.223 163.29 280.056C163.448 279.888 163.571 279.692 163.652 279.477C163.733 279.262 163.772 279.033 163.765 278.803C163.758 278.573 163.706 278.347 163.611 278.138C163.273 277.388 163.32 274.812 163.748 272.648C164.176 270.483 164.773 268.681 164.773 268.681C164.92 268.24 164.885 267.76 164.678 267.345C164.47 266.93 164.106 266.614 163.666 266.468Z" fill="black"/>
<path d="M144.949 225.548C144.719 225.546 144.491 225.589 144.278 225.674C144.065 225.76 143.871 225.887 143.706 226.048C143.542 226.209 143.411 226.4 143.321 226.612C143.231 226.823 143.184 227.051 143.181 227.28C143.179 227.51 143.222 227.739 143.308 227.952C143.394 228.165 143.521 228.359 143.682 228.524C143.843 228.688 144.035 228.819 144.247 228.909C144.458 228.998 144.686 229.046 144.916 229.048C144.916 229.048 147.363 229.028 151.345 231.054C155.328 233.079 160.663 237.142 165.818 245.468C176.291 262.389 195.812 302.749 213.129 344.548C213.307 344.977 213.648 345.317 214.077 345.494C214.505 345.672 214.987 345.671 215.416 345.493C215.844 345.316 216.185 344.975 216.362 344.547C216.54 344.118 216.54 343.637 216.363 343.208C198.996 301.287 179.55 261.005 168.795 243.626C163.337 234.811 157.483 230.249 152.931 227.935C148.38 225.62 144.949 225.548 144.949 225.548Z" fill="black"/>
<path d="M204.576 400.626C204.363 400.54 204.135 400.496 203.905 400.498C203.675 400.5 203.448 400.547 203.236 400.636C202.809 400.817 202.471 401.16 202.297 401.59C202.122 402.02 202.126 402.502 202.306 402.929C202.306 402.929 208.765 418.133 209.65 445.425C209.665 445.889 209.864 446.328 210.203 446.645C210.542 446.962 210.993 447.132 211.457 447.117C211.921 447.101 212.359 446.902 212.677 446.564C212.994 446.225 213.163 445.774 213.148 445.31C212.247 417.503 205.531 401.566 205.531 401.566C205.441 401.354 205.311 401.162 205.147 401.001C204.983 400.84 204.789 400.712 204.576 400.626Z" fill="black"/>
<path d="M268.484 383.027C268.303 382.885 268.095 382.781 267.874 382.719C267.652 382.658 267.421 382.641 267.192 382.67C266.964 382.698 266.744 382.771 266.544 382.884C266.344 382.998 266.168 383.15 266.027 383.331C265.886 383.512 265.781 383.72 265.72 383.942C265.659 384.163 265.642 384.395 265.67 384.623C265.699 384.851 265.772 385.071 265.885 385.271C265.999 385.471 266.15 385.647 266.332 385.788C273.668 391.506 274.388 398.408 272.672 405.575C270.955 412.742 266.537 419.863 263.478 424.702C260.679 429.132 255.29 433.382 249.435 436.218C243.58 439.054 237.249 440.449 232.89 439.732C225.384 438.495 219.588 432.85 215.672 427.345C211.755 421.84 209.816 416.673 209.816 416.673C209.736 416.458 209.613 416.26 209.456 416.092C209.3 415.924 209.111 415.788 208.902 415.693C208.692 415.598 208.466 415.545 208.237 415.537C208.007 415.529 207.778 415.567 207.562 415.648C207.347 415.728 207.15 415.851 206.982 416.008C206.814 416.165 206.679 416.353 206.584 416.563C206.489 416.772 206.436 416.998 206.428 417.228C206.42 417.457 206.458 417.686 206.539 417.902C206.539 417.902 208.619 423.469 212.82 429.374C217.021 435.279 223.438 441.721 232.322 443.185C237.863 444.097 244.646 442.425 250.961 439.366C257.275 436.308 263.113 431.832 266.437 426.571C269.503 421.721 274.167 414.353 276.074 406.39C277.981 398.427 276.864 389.559 268.484 383.027Z" fill="black"/>
<path d="M263.886 385.696C262.945 385.487 261.797 385.778 261.09 386.443C259.675 387.771 259.563 389.634 259.791 391.857C260.12 395.07 260.726 400.754 258.836 405.913C256.945 411.073 252.812 415.831 242.545 417.552C239.529 418.056 235.243 418.172 231.088 416.392C226.932 414.611 222.791 410.987 219.892 403.458C218.957 401.031 217.676 399.112 215.445 398.605C214.329 398.351 212.831 398.965 212.203 400.021C211.574 401.076 211.446 402.295 211.531 403.853C211.985 412.196 218.255 424.494 229.801 430.31C239.443 435.167 254.796 433.464 264.984 428.329C265.398 428.12 265.713 427.756 265.858 427.315C266.004 426.874 265.968 426.394 265.759 425.98C265.656 425.774 265.513 425.591 265.339 425.441C265.165 425.291 264.963 425.177 264.744 425.105C264.526 425.033 264.296 425.004 264.066 425.021C263.837 425.038 263.613 425.101 263.408 425.204C254.272 429.809 239.28 431.167 231.375 427.185C221.203 422.061 215.392 410.34 215.027 403.663C214.987 402.916 215.078 402.783 215.144 402.487C215.577 402.905 216.184 403.57 216.627 404.718C219.799 412.959 224.711 417.471 229.709 419.612C234.706 421.754 239.672 421.581 243.123 421.005C254.328 419.126 259.87 413.268 262.123 407.12C264.376 400.972 263.595 394.658 263.271 391.501C263.122 390.043 263.424 389.502 263.455 389.349C263.593 389.428 263.65 389.422 263.906 389.667C267.039 392.696 268.848 398.375 269.689 403.314C270.531 408.252 270.494 412.333 270.494 412.333C270.49 412.797 270.67 413.244 270.995 413.575C271.32 413.906 271.762 414.094 272.226 414.099C272.69 414.103 273.137 413.923 273.468 413.598C273.799 413.273 273.987 412.83 273.992 412.366C273.992 412.366 274.037 407.997 273.138 402.726C272.24 397.454 270.488 391.162 266.34 387.152H266.336C265.596 386.44 264.828 385.91 263.886 385.7L263.886 385.696Z" fill="black"/>
<path fill-rule="evenodd" clip-rule="evenodd" d="M272.243 412.347C270.081 417.497 267.143 422.177 264.958 425.637C264.72 426.017 264.465 426.387 264.196 426.767C254.534 431.637 239.362 433.167 230.588 428.747C219.729 423.277 213.688 411.267 213.279 403.757C212.982 398.287 216.657 399.927 218.26 404.087C224.331 419.857 236.368 420.357 242.834 419.277C264.307 415.677 262.184 398.047 261.531 391.677C261.129 387.757 262.755 386.127 265.123 388.407C272.405 395.447 272.243 412.347 272.243 412.347Z" fill="black"/>
<path d="M221.06 391.581C216.752 395.228 214.955 400.771 214.955 400.771C214.804 401.21 214.835 401.69 215.039 402.107C215.243 402.524 215.604 402.843 216.043 402.993C216.26 403.068 216.49 403.099 216.72 403.084C216.949 403.07 217.173 403.01 217.38 402.909C217.586 402.808 217.771 402.667 217.923 402.494C218.075 402.322 218.191 402.121 218.265 401.903C218.265 401.903 220.022 397.047 223.322 394.253C223.498 394.105 223.642 393.923 223.747 393.719C223.853 393.514 223.917 393.291 223.936 393.062C223.955 392.833 223.928 392.603 223.858 392.384C223.788 392.165 223.676 391.962 223.527 391.786C223.379 391.611 223.197 391.466 222.993 391.361C222.788 391.256 222.565 391.192 222.336 391.173C222.107 391.154 221.877 391.18 221.658 391.25C221.439 391.32 221.236 391.433 221.06 391.581Z" fill="black"/>
<path d="M219.73 126.864C214.984 127.158 211.663 128.455 209.388 130.583C206.355 133.42 205.513 137.384 205.142 141.251C204.401 148.983 202.092 192.16 201.566 202.841C201.108 212.14 208.253 221.18 218.011 222.325C218.012 222.325 218.013 222.325 218.013 222.325C226.675 223.332 270.539 227.346 273.279 227.597C272.673 249.17 255.742 269.4 255.742 269.4C255.504 269.678 255.36 270.024 255.329 270.389C255.298 270.753 255.382 271.119 255.57 271.433C255.757 271.747 256.039 271.995 256.375 272.141C256.71 272.287 257.083 272.324 257.441 272.247C270.963 269.328 278.566 257.468 282.765 246.667C286.392 237.341 287.371 229.764 287.629 227.542C289.31 227.805 291.12 228.04 294.289 228.265C298.358 228.553 303.431 228.825 308.697 229.054C319.229 229.512 330.495 229.804 336.064 229.718C341.889 229.633 345.979 227.734 348.617 225.038C351.255 222.342 352.416 218.988 352.945 216.126C353.477 213.241 354.877 202.649 356.338 191.042C357.798 179.436 359.288 166.979 359.904 160.814C360.54 154.453 359.734 149.617 357.472 146.157C355.211 142.699 351.511 140.872 347.222 140.429H347.218C343.38 140.028 316.461 136.899 288.744 133.751C261.025 130.603 232.554 127.436 224.966 126.913C223.053 126.781 221.312 126.768 219.73 126.866L219.73 126.864ZM219.98 130.351C221.367 130.269 222.94 130.281 224.726 130.404C231.937 130.901 260.634 134.079 288.347 137.226C316.06 140.373 342.836 143.488 346.859 143.908C346.86 143.908 346.86 143.908 346.861 143.908C350.429 144.275 352.901 145.559 354.543 148.07C356.184 150.58 357.011 154.575 356.422 160.464C355.814 166.539 354.323 179.012 352.865 190.603C351.407 202.194 349.951 213.064 349.504 215.49C349.053 217.927 348.09 220.572 346.115 222.591C344.14 224.61 341.127 226.143 336.012 226.218C330.641 226.301 319.337 226.013 308.849 225.556C303.605 225.328 298.555 225.058 294.537 224.773C290.518 224.488 287.362 224.132 286.578 223.939C286.334 223.879 286.079 223.872 285.832 223.919C285.585 223.966 285.35 224.065 285.145 224.211C284.94 224.357 284.768 224.545 284.643 224.763C284.517 224.981 284.439 225.223 284.416 225.474C284.416 225.474 283.501 235.118 279.504 245.398C276.138 254.055 270.643 262.872 261.92 266.988C267.317 259.438 277.082 243.465 276.91 225.999C276.905 225.566 276.74 225.15 276.447 224.831C276.153 224.513 275.752 224.315 275.32 224.275C275.32 224.275 227.044 219.851 218.42 218.849H218.418C210.623 217.933 204.7 210.374 205.062 203.013C205.586 192.374 207.94 148.753 208.627 141.585C208.971 138.003 209.712 135.076 211.781 133.14C213.333 131.688 215.819 130.597 219.98 130.351Z" fill="black"/>
<path d="M227.949 146.823C227.72 146.803 227.489 146.828 227.27 146.897C227.05 146.966 226.847 147.077 226.67 147.225C226.494 147.373 226.348 147.553 226.242 147.757C226.136 147.961 226.071 148.184 226.051 148.413C226.01 148.875 226.154 149.335 226.452 149.69C226.75 150.046 227.177 150.269 227.638 150.31L316.121 158.171C316.583 158.212 317.042 158.067 317.398 157.77C317.753 157.472 317.976 157.045 318.017 156.583C318.038 156.354 318.013 156.124 317.944 155.904C317.875 155.685 317.764 155.481 317.617 155.305C317.469 155.129 317.288 154.983 317.085 154.877C316.881 154.77 316.658 154.705 316.429 154.685L227.949 146.823Z" fill="black"/>
<path d="M228.072 166.31C227.608 166.29 227.156 166.455 226.814 166.769C226.473 167.083 226.269 167.52 226.25 167.983C226.23 168.447 226.396 168.899 226.709 169.241C227.023 169.583 227.46 169.786 227.924 169.806L242.416 170.415C242.879 170.435 243.332 170.269 243.673 169.956C244.015 169.642 244.218 169.205 244.238 168.741C244.258 168.278 244.092 167.825 243.778 167.484C243.465 167.142 243.028 166.939 242.564 166.919L228.072 166.31Z" fill="black"/>
<path d="M258.713 168.761C258.249 168.735 257.795 168.894 257.448 169.203C257.102 169.512 256.893 169.946 256.867 170.409C256.841 170.873 257 171.327 257.309 171.674C257.618 172.02 258.052 172.229 258.515 172.255L327.199 176.134C327.662 176.16 328.117 176.001 328.463 175.692C328.809 175.383 329.019 174.949 329.045 174.485C329.071 174.022 328.912 173.567 328.603 173.221C328.294 172.875 327.86 172.666 327.396 172.64L258.713 168.761Z" fill="black"/>
<path d="M226.021 184.175C225.792 184.153 225.562 184.177 225.342 184.244C225.122 184.311 224.918 184.421 224.741 184.568C224.563 184.714 224.417 184.894 224.309 185.097C224.201 185.3 224.135 185.522 224.113 185.751C224.091 185.98 224.115 186.211 224.182 186.431C224.25 186.65 224.36 186.855 224.506 187.032C224.652 187.209 224.832 187.356 225.035 187.463C225.238 187.571 225.46 187.637 225.689 187.659L262.224 191.13C262.453 191.152 262.684 191.128 262.904 191.061C263.124 190.993 263.328 190.883 263.506 190.736C263.683 190.59 263.829 190.41 263.937 190.207C264.045 190.003 264.111 189.781 264.133 189.552C264.176 189.09 264.034 188.629 263.738 188.272C263.442 187.914 263.017 187.689 262.554 187.646L226.021 184.175Z" fill="black"/>
<path d="M275.472 187.542C275.01 187.51 274.553 187.663 274.203 187.967C273.853 188.271 273.638 188.702 273.605 189.165C273.573 189.628 273.726 190.085 274.03 190.435C274.335 190.785 274.766 191 275.228 191.032L291.252 192.153C291.481 192.169 291.711 192.14 291.929 192.067C292.147 191.994 292.349 191.879 292.522 191.728C292.695 191.577 292.837 191.393 292.94 191.187C293.042 190.982 293.103 190.758 293.119 190.528C293.151 190.066 292.998 189.609 292.694 189.259C292.39 188.909 291.959 188.694 291.496 188.661L275.472 187.542Z" fill="black"/>
<path d="M312.084 191.521C311.62 191.496 311.166 191.656 310.821 191.965C310.475 192.275 310.267 192.71 310.242 193.173C310.217 193.636 310.377 194.091 310.687 194.436C310.997 194.781 311.431 194.99 311.894 195.015L334.551 196.235C334.78 196.248 335.01 196.215 335.227 196.138C335.443 196.062 335.643 195.944 335.814 195.79C335.985 195.636 336.124 195.45 336.223 195.243C336.323 195.036 336.38 194.811 336.392 194.581C336.405 194.352 336.372 194.122 336.295 193.905C336.219 193.688 336.1 193.489 335.947 193.317C335.793 193.146 335.607 193.007 335.4 192.908C335.193 192.809 334.968 192.752 334.738 192.739L312.084 191.521Z" fill="black"/>
<path d="M287.558 207.737L278.373 207.948C277.909 207.959 277.468 208.154 277.148 208.489C276.828 208.825 276.653 209.274 276.664 209.737C276.675 210.201 276.869 210.642 277.205 210.962C277.54 211.283 277.989 211.457 278.453 211.446L287.638 211.237C287.868 211.232 288.095 211.181 288.305 211.089C288.515 210.996 288.705 210.862 288.864 210.696C289.023 210.53 289.147 210.334 289.23 210.119C289.313 209.905 289.353 209.676 289.347 209.446C289.337 208.983 289.142 208.542 288.807 208.222C288.471 207.901 288.022 207.727 287.558 207.737Z" fill="black"/>
<path d="M223.613 200.2C223.152 200.145 222.689 200.276 222.324 200.562C221.959 200.849 221.723 201.269 221.668 201.73C221.613 202.19 221.743 202.654 222.03 203.019C222.316 203.384 222.736 203.62 223.197 203.675L262.488 208.374C262.949 208.429 263.413 208.299 263.777 208.012C264.142 207.726 264.378 207.306 264.433 206.845C264.488 206.384 264.358 205.92 264.071 205.556C263.785 205.191 263.365 204.955 262.904 204.9L223.613 200.2Z" fill="black"/>
</g>
<defs>
<clipPath id="clip0_1_429">
<rect width="360.114" height="457.661" fill="white"/>
</clipPath>
</defs>
</svg>
