<svg width="102" height="102" viewBox="0 0 102 102" fill="none" xmlns="http://www.w3.org/2000/svg">
<rect width="102" height="102" fill="white"/>
<path d="M83.3512 59.4121C83.5112 59.0721 83.6712 58.7321 83.8012 58.4121C83.8612 58.2421 83.9412 58.0721 83.9912 57.9121L84.0812 57.6621C84.0812 57.5821 84.0812 57.4821 84.0812 57.5121C84.2198 57.3555 84.2916 57.1509 84.2812 56.9421C84.2812 56.7921 84.0812 56.8021 83.9712 56.7621H83.8912C83.8312 56.7621 83.7812 56.6621 83.7112 56.6421C83.6412 56.6221 83.2612 56.4921 83.0212 56.4221C82.5212 56.2721 82.0212 56.1521 81.4612 56.0321C80.3912 55.7921 79.2712 55.6021 78.1512 55.4421C77.1557 55.3226 76.1539 55.2625 75.1512 55.2621C73.8612 55.2621 72.4612 55.4121 71.1512 54.5621C70.7412 54.3021 71.0512 53.5621 71.5512 52.8321C71.7967 52.4465 72.0779 52.0849 72.3912 51.7521C72.6278 51.431 72.9934 51.2299 73.3912 51.2021C75.9719 51.1114 78.5545 51.3093 81.0912 51.7921C81.8622 51.9566 82.6444 52.0636 83.4312 52.1121H84.0412L84.7812 52.2021C85.405 52.2866 86.0206 52.4237 86.6212 52.6121L87.0812 52.8621C87.7306 53.1328 88.2525 53.6405 88.5412 54.2821C88.8281 54.9096 88.9749 55.5921 88.9712 56.2821C88.9591 56.9893 88.8719 57.6932 88.7112 58.3821C88.5812 58.8821 88.4212 59.3821 88.2612 59.8221C87.8405 60.9225 87.3563 61.9976 86.8112 63.0421C86.0012 64.5921 85.0212 66.0421 84.0812 67.4821C83.3612 68.6121 82.7912 69.8521 81.9612 70.9921C81.7964 71.2537 81.6017 71.4953 81.3812 71.7121C80.5212 72.5021 79.9812 72.4721 79.1112 71.7121C78.9032 71.5449 78.7061 71.3645 78.5212 71.1721C77.9524 70.6115 77.7715 69.7663 78.0612 69.0221C78.2484 68.5211 78.4621 68.0304 78.7012 67.5521C78.9512 67.1021 79.2012 66.6621 79.4712 66.2221L81.1112 63.5521C81.9258 62.2284 82.6379 60.8444 83.2412 59.4121H83.3512Z" fill="#231F20"/>
<path d="M33.4511 42.8122C33.7559 42.7186 34.0666 42.6451 34.3811 42.5922H34.5811H34.6411H34.7611C34.8464 42.5771 34.9205 42.5246 34.9631 42.4491C35.0057 42.3736 35.0123 42.283 34.9811 42.2022C34.9543 42.1274 34.9172 42.0568 34.8711 41.9922C34.7511 41.7522 34.6311 41.5122 34.5311 41.2622C33.7604 39.3629 32.7811 37.5551 31.6111 35.8722C31.0817 35.125 30.5038 34.4135 29.8811 33.7422C29.0811 32.8922 28.2211 32.0822 27.4911 31.1822C27.2811 30.9222 27.4911 30.6322 27.9911 30.5022C28.6372 30.3505 29.3172 30.462 29.8811 30.8122C30.9455 31.5244 31.9489 32.3238 32.8811 33.2022C33.7852 34.0988 34.5716 35.1069 35.2211 36.2022C36.0011 37.5322 37.0511 38.7522 37.8311 40.1422L38.1811 40.7822L38.5811 41.5422C38.7542 42.0095 38.8684 42.4966 38.9211 42.9922C38.9021 43.2392 38.8585 43.4838 38.7911 43.7222C38.7006 43.9529 38.5937 44.1768 38.4711 44.3922C38.2089 44.8292 37.8702 45.2154 37.4711 45.5322C37.261 45.675 37.0636 45.8356 36.8811 46.0122L36.3711 46.3322C35.3811 46.8719 34.3257 47.2819 33.2311 47.5522C31.6611 48.0122 30.0711 48.2622 28.5211 48.6222C27.3211 48.8922 26.1711 49.3822 24.9411 49.7022C24.6774 49.7902 24.4063 49.8538 24.1311 49.8922C23.1311 49.9422 22.7411 49.6122 22.5211 48.4722C22.4711 48.2122 22.4111 47.9622 22.3811 47.7022C22.2622 46.9094 22.6282 46.1222 23.3111 45.7022C24.2132 45.1967 25.183 44.8229 26.1911 44.5922C27.1911 44.3322 28.1911 44.1222 29.1911 43.8922C30.6202 43.6105 32.0272 43.2262 33.4011 42.7422L33.4511 42.8122Z" fill="#231F20"/>
<path d="M32.7808 58.632C32.7808 60.522 32.4708 62.432 32.3408 64.332C32.2908 65.022 32.4208 65.702 32.3408 66.402C32.0908 68.842 31.8008 71.292 31.6208 73.732C31.4897 74.8102 31.4329 75.8961 31.4508 76.982C31.5578 78.3841 31.426 79.7941 31.0608 81.152C30.9208 81.582 30.2508 81.522 29.5108 81.152C28.6975 80.8288 28.0389 80.2061 27.6708 79.412C26.9708 76.692 26.1508 73.962 26.8108 71.112C26.9087 69.3963 26.8417 67.675 26.6108 65.972C26.5408 64.082 26.5408 62.182 26.5408 60.282C26.5408 59.112 26.6108 57.942 26.6008 56.782C26.6428 55.0138 26.5893 53.2445 26.4408 51.482C26.3411 50.8042 26.1872 50.1354 25.9808 49.482L25.6708 48.482C25.5908 48.142 25.5408 47.812 25.4908 47.482C25.4408 47.152 25.3708 46.902 25.3608 46.602C25.3608 46.462 25.3608 46.332 25.3608 46.212C25.4029 46.0986 25.453 45.9883 25.5108 45.882C25.6195 45.6942 25.758 45.5254 25.9208 45.382C26.302 45.0741 26.7511 44.8616 27.2308 44.762C27.4908 44.692 27.7408 44.602 27.9908 44.552C28.9167 44.461 29.8273 44.8357 30.4208 45.552C32.4208 47.822 32.5208 50.372 32.7508 52.912C32.8908 54.802 32.8608 56.722 32.9108 58.622L32.7808 58.632Z" fill="#231F20"/>
<path d="M36.9811 43.952C37.0182 43.8777 37.0355 43.795 37.0311 43.712C37.0355 43.6488 37.0355 43.5853 37.0311 43.522C36.9819 43.3841 36.9217 43.2503 36.8511 43.122L36.5411 42.552C35.7731 41.0377 34.908 39.5746 33.9511 38.172C33.2711 37.172 32.4211 36.272 31.6911 35.342C31.1784 34.6838 30.6239 34.0592 30.0311 33.472C29.9211 33.352 29.7011 33.172 29.6911 33.152C29.6429 33.0938 29.5893 33.0402 29.5311 32.992C29.4061 32.8796 29.2547 32.8005 29.0911 32.762C28.8544 32.7382 28.6158 32.7797 28.4011 32.882L28.2411 32.962C28.1311 33.022 28.0211 33.112 27.9011 33.182C27.7811 33.252 27.4511 33.512 27.2211 33.682C26.2797 34.4694 25.3849 35.3108 24.5411 36.202C23.1077 37.6171 21.7714 39.1272 20.5411 40.722C19.7411 41.722 18.9911 42.792 18.1611 43.792L17.5211 44.542L16.7811 45.212C16.2677 45.652 15.7377 46.072 15.1911 46.472C14.4711 46.962 14.1111 46.472 13.9711 45.472C13.8899 44.8556 13.8631 44.2332 13.8911 43.612C13.9069 43.2431 13.9469 42.8757 14.0111 42.512C14.0111 42.322 14.1011 42.152 14.1311 41.962C14.2078 41.7969 14.2947 41.6366 14.3911 41.482C15.8011 39.272 17.2311 37.032 18.8811 34.862C19.6949 33.7326 20.6122 32.6814 21.6211 31.722C22.7224 30.6541 23.9361 29.7085 25.2411 28.902C26.3787 28.1091 27.7161 27.6517 29.1011 27.582C31.1011 27.632 33.1011 29.212 33.9311 29.982C34.9398 30.877 35.8729 31.8537 36.7211 32.902C37.8826 34.3729 38.9641 35.9051 39.9611 37.492C40.4511 38.282 40.9611 39.052 41.4411 39.852L42.3211 41.312C42.6811 41.922 43.0111 42.532 43.3211 43.152C43.6957 43.8633 44.0069 44.6061 44.2511 45.372C44.4437 46.0205 44.5281 46.6962 44.5011 47.372C44.5192 47.6776 44.4922 47.9843 44.4211 48.282C44.2492 48.5763 44.0295 48.8399 43.7711 49.062C43.2363 49.4584 42.6277 49.744 41.9811 49.902C40.8497 50.1735 39.6939 50.331 38.5311 50.372C37.9211 50.372 37.3111 50.372 36.7111 50.372H35.4111C33.7311 50.372 32.0711 50.372 30.4111 50.472C27.94 50.6852 25.4972 51.151 23.1211 51.862C22.6211 52.002 22.1211 52.212 21.6711 52.342L21.0511 52.492C20.8779 52.5014 20.7043 52.5014 20.5311 52.492C20.2432 52.4949 19.9577 52.4405 19.6911 52.332C19.4332 52.2164 19.1992 52.0536 19.0011 51.852C18.7511 51.572 18.5011 51.222 18.2611 50.912C18.0211 50.602 17.7911 50.392 17.6311 50.172C17.3611 49.802 17.3411 49.392 17.4711 48.542C17.5211 48.352 17.5311 48.022 17.6411 47.912C17.7451 47.7526 17.8621 47.6021 17.9911 47.462C18.2813 47.1372 18.6183 46.8574 18.9911 46.632C19.5605 46.2761 20.1675 45.9844 20.8011 45.762C21.4211 45.532 22.0411 45.322 22.6611 45.152C23.9132 44.8208 25.186 44.5735 26.4711 44.412C28.9218 44.0936 31.3898 43.9266 33.8611 43.912H36.4911V43.972C36.4911 44.022 36.7611 44.072 36.7311 43.972L36.9811 43.952Z" fill="#231F20"/>
<path d="M30.421 24.9222C28.421 24.8222 26.421 24.6922 24.421 24.5522C23.691 24.5022 22.971 24.5522 22.241 24.5022C20.961 24.4022 19.681 24.0822 18.411 23.8622C17.141 23.6422 15.871 23.3822 14.611 23.0922L11.281 22.4122C9.78372 22.1597 8.37192 21.5414 7.17104 20.6122C6.80104 20.3022 7.07104 20.0722 7.60104 19.9322C8.25066 19.7479 8.92964 19.6902 9.60104 19.7622C12.201 20.2322 15.011 20.1122 17.821 20.4322C18.6863 20.5022 19.5558 20.5022 20.421 20.4322C21.2946 20.3392 22.1726 20.2958 23.051 20.3022C24.981 20.3022 26.921 20.3022 28.861 20.3022C30.051 20.3022 31.251 20.2522 32.441 20.1722C34.2554 20.1095 36.0649 19.9459 37.861 19.6822C39.2262 19.3623 40.5638 18.9342 41.861 18.4022C42.151 18.3022 42.431 18.1422 42.721 18.0622C43.841 17.8422 44.251 18.1722 44.721 19.6022C44.821 19.9222 44.951 20.2422 45.031 20.6022C45.3574 21.5562 45.0152 22.6112 44.191 23.1922C41.831 24.5722 39.191 24.8322 36.471 25.0222C34.471 25.1422 32.471 25.1122 30.471 25.1122L30.421 24.9222Z" fill="#231F20"/>
<path d="M72.121 41.4121C72.251 39.6621 72.571 37.9021 72.751 36.1321C72.811 35.4921 72.751 34.8521 72.751 34.2021C73.031 31.9221 73.331 29.6321 73.511 27.3421C73.6382 26.3474 73.6883 25.3444 73.661 24.3421C73.5378 23.0312 73.6393 21.7088 73.961 20.4321C74.091 20.0221 74.761 20.0521 75.521 20.3521C76.3333 20.6226 77.0101 21.1956 77.411 21.9521C78.171 24.5321 79.001 27.1221 78.341 29.8321C78.051 31.4421 78.441 33.0821 78.471 34.7121C78.471 36.5121 78.471 38.3121 78.371 40.1221L78.201 43.4121C78.121 45.0921 77.931 46.7821 77.981 48.4721C78.0199 49.1435 78.1034 49.8117 78.231 50.4721L78.431 51.4721C78.431 51.8021 78.431 52.1421 78.431 52.4721C78.451 52.7651 78.451 53.0591 78.431 53.3521C78.4208 53.4849 78.3939 53.6159 78.351 53.7421C78.2858 53.8478 78.2123 53.9481 78.131 54.0421C77.9869 54.2097 77.8183 54.3547 77.631 54.4721C77.1972 54.6898 76.7162 54.7963 76.231 54.7821C75.961 54.7821 75.691 54.7821 75.441 54.7821C74.5559 54.6473 73.7664 54.1511 73.261 53.4121C71.691 51.1821 71.821 48.9821 71.791 46.6521C71.791 44.9321 71.931 43.1821 71.971 41.4221L72.121 41.4121Z" fill="#231F20"/>
<path d="M93.4209 55.1422C92.9676 56.7093 92.2942 58.2042 91.4209 59.5822C90.9909 60.3622 90.8109 60.5822 90.5409 61.0322L89.7609 62.1922C88.6909 63.7222 87.6609 65.2522 86.5209 66.7222C85.7304 67.8483 84.8826 68.933 83.9809 69.9722C83.243 70.7695 82.4476 71.5115 81.6009 72.1922C81.3705 72.3815 81.1302 72.5585 80.8809 72.7222C80.6004 72.9169 80.31 73.0972 80.0109 73.2622C79.2998 73.6325 78.5206 73.8537 77.7209 73.9122C77.1816 73.8893 76.6489 73.7848 76.1409 73.6022C75.6662 73.4201 75.2134 73.1853 74.7909 72.9022C74.1646 72.4687 73.5728 71.9873 73.0209 71.4622C72.0214 70.5168 71.0765 69.5152 70.1909 68.4622C68.8809 66.8322 67.5609 65.2622 66.2709 63.7022C65.4309 62.7022 64.5809 61.7022 63.7709 60.7022L63.1609 59.9522L62.6409 59.1422L61.6409 57.4922C61.2309 56.8022 61.6409 56.4922 62.6409 56.5722C63.2327 56.6197 63.8168 56.7372 64.3809 56.9222C64.7224 57.0342 65.0564 57.1678 65.3809 57.3222L65.8909 57.5922C66.0383 57.707 66.1785 57.8305 66.3109 57.9622C68.2009 59.8622 70.0009 61.7922 71.7609 63.6822C72.6309 64.6322 73.5309 65.5422 74.3209 66.5022C75.0715 67.4037 75.8763 68.2586 76.7309 69.0622C76.8367 69.1644 76.9504 69.258 77.0709 69.3422L77.2209 69.4822C77.3163 69.5658 77.4349 69.6181 77.5609 69.6322C77.7718 69.648 77.9803 69.5797 78.1409 69.4422C78.5432 69.1465 78.9151 68.8116 79.2509 68.4422C80.0385 67.6418 80.7797 66.7971 81.4709 65.9122C82.5409 64.6422 83.5409 63.2422 84.4809 61.8022C84.9609 61.0722 85.4109 60.3322 85.8609 59.5822L86.9909 57.5822C87.3481 57.0383 87.6401 56.4543 87.8609 55.8422C87.9509 55.5822 87.7109 55.4222 87.5209 55.3722C87.3104 55.3008 87.0923 55.2538 86.8709 55.2322C86.4609 55.1722 86.0309 55.1422 85.5809 55.1122H84.4109H83.1709C81.5009 55.1122 79.8309 55.1122 78.1709 55.1822C75.5709 55.2622 72.9909 55.6222 70.2809 55.6022C69.6809 55.6022 69.0809 55.6022 68.4609 55.6022C67.6012 55.5628 66.7771 55.2472 66.1109 54.7022C65.8945 54.5051 65.7297 54.2579 65.6309 53.9822C65.559 53.637 65.5254 53.2848 65.5309 52.9322C65.5171 52.659 65.5171 52.3854 65.5309 52.1122C65.5309 51.7322 65.8509 51.4822 66.3709 51.0122C66.5859 50.7736 66.8684 50.6062 67.1809 50.5322C67.4865 50.4311 67.8014 50.3607 68.1209 50.3222C72.2209 50.0522 76.8209 49.8622 81.6309 49.7622H83.9409C84.8109 49.7622 85.1809 49.7622 87.0209 49.7622C88.3855 49.823 89.7335 50.0858 91.0209 50.5422C91.1609 50.6022 91.3209 50.6522 91.4509 50.7222L91.8009 50.9522C92.0373 51.0961 92.2584 51.2636 92.4609 51.4522L92.9409 52.1422L93.0709 52.3322H93.1309V52.3822V52.4722C93.1966 52.5898 93.2502 52.7138 93.2909 52.8422C93.5269 53.5673 93.6119 54.333 93.5409 55.0922L93.4209 55.1422Z" fill="#231F20"/>
<path d="M80.1909 82.3521C78.4409 82.1021 76.6709 81.9321 74.9009 81.8521C74.2509 81.8521 73.6109 81.9521 72.9609 81.9221C71.8209 81.9221 70.6609 81.7521 69.5009 81.7121C68.3409 81.6721 67.1809 81.7121 66.0409 81.7721C65.03 81.8599 64.0272 82.0237 63.0409 82.2621C61.7909 82.5721 60.5609 82.9521 59.2709 83.1921C58.8709 83.2621 58.7709 82.9421 58.9509 82.4621C59.206 81.8046 59.6743 81.2518 60.2809 80.8921C62.7651 79.57 65.4817 78.7414 68.2809 78.4521C69.9509 78.3421 71.6309 77.7621 73.3409 77.6921C75.2109 77.5621 77.0809 77.5621 78.9509 77.6021C80.1109 77.6021 81.2609 77.6921 82.4109 77.7521C84.1509 77.8521 85.8909 78.0621 87.6409 78.1621C88.3209 78.1621 89.0009 78.1621 89.7009 78.1621C90.4059 78.1033 91.1135 78.0799 91.8209 78.0921C92.1409 78.0921 92.4709 78.0921 92.8209 78.0921C94.0009 78.3521 94.2809 78.8721 94.0109 80.3321C93.9509 80.6621 93.9109 80.9921 93.8209 81.3321C93.6343 82.259 92.9731 83.019 92.0809 83.3321C89.8651 83.6272 87.6162 83.563 85.4209 83.1421C83.7209 82.9221 81.9709 82.6621 80.2109 82.5221L80.1909 82.3521Z" fill="#231F20"/>
</svg>
