<svg width="102" height="102" viewBox="0 0 102 102" fill="none" xmlns="http://www.w3.org/2000/svg">
<rect width="102" height="102" fill="white"/>
<path d="M44.1251 88.3941C38.4132 87.7497 32.9467 85.7135 28.2051 82.4641C25.8891 80.8048 23.7983 78.8518 21.9851 76.6541C20.1463 74.4965 18.578 72.1222 17.3151 69.5841C15.5248 65.9555 14.2749 62.0845 13.6051 58.0941C12.3567 51.0422 13.048 43.7836 15.6051 37.0941C18.2086 30.4387 22.734 24.7088 28.6051 20.6341C33.774 17.0263 39.7823 14.8054 46.0551 14.1841C50.0525 13.7483 54.0964 14.0879 57.9651 15.1841C58.93 15.4425 59.8812 15.7496 60.8151 16.1041L62.1651 16.7441C62.6151 16.9641 63.0351 17.2241 63.4751 17.4641L64.7551 18.2041C65.1751 18.4641 65.5751 18.7541 65.9751 19.0241L67.1851 19.8541C67.5751 20.1441 67.9551 20.4541 68.3351 20.7541C70.2051 22.3041 69.5851 22.5641 67.4351 22.3541C66.4351 22.2141 64.8751 22.1141 63.1851 21.9541C62.3251 21.9541 61.4051 21.8841 60.4751 21.8041C59.9951 21.8041 59.5351 21.7441 59.0351 21.8041C58.5351 21.8641 58.1151 21.5741 57.6351 21.4941C55.9902 21.1196 54.3184 20.8755 52.6351 20.7641L51.3851 20.6941C50.9651 20.6941 50.5451 20.6941 50.1251 20.6941C49.2924 20.6491 48.4578 20.6491 47.6251 20.6941C44.2846 20.7985 40.9869 21.475 37.8751 22.6941C36.3047 23.3034 34.7864 24.0392 33.3351 24.8941C31.8831 25.7814 30.5053 26.7846 29.2151 27.8941C26.5672 30.1254 24.3213 32.794 22.5751 35.7841C20.4157 39.5207 19.1175 43.6921 18.7751 47.9941C18.4779 52.3974 18.8864 56.8198 19.9851 61.0941C20.5723 63.4324 21.414 65.6992 22.4951 67.8541C23.5511 70.0044 24.8969 71.9996 26.4951 73.7841C29.7519 77.3172 33.8954 79.9138 38.4951 81.3041C44.3044 82.9684 50.4438 83.113 56.3251 81.7241C60.8462 80.6783 65.18 78.9448 69.1751 76.5841C71.1349 75.4481 72.9685 74.1073 74.6451 72.5841C75.4574 71.836 76.2004 71.016 76.8651 70.1341L77.8651 68.8241C78.1551 68.3641 78.4051 67.8241 78.6851 67.3941C80.299 64.432 81.1802 61.1265 81.2551 57.7541C81.3192 54.4168 80.8015 51.0938 79.7251 47.9341C79.2251 46.5541 78.7251 45.2241 78.0851 43.9341C76.9951 41.4341 76.0851 39.9341 75.7651 38.6041C75.621 38.0319 75.5471 37.4442 75.5451 36.8541C75.5731 36.289 75.6913 35.732 75.8951 35.2041C76.0499 34.6752 76.2403 34.1573 76.4651 33.6541C76.8851 32.9141 77.7151 32.8241 78.9151 33.3941C80.6147 34.2952 82.0515 35.6217 83.0851 37.2441C85.2494 40.3356 86.8756 43.7706 87.8951 47.4041C88.9051 51.227 89.21 55.2019 88.7951 59.1341C88.0971 65.3502 85.4307 71.1805 81.1851 75.7741L78.9851 77.9041C78.614 78.2707 78.2125 78.6052 77.7851 78.9041L76.5551 79.8041C75.3847 80.6591 74.1624 81.4407 72.8951 82.1441C71.6451 82.8041 70.4151 83.5041 69.1251 84.1441C66.5472 85.3666 63.8711 86.3702 61.1251 87.1441C55.606 88.7239 49.8356 89.2331 44.1251 88.6441V88.3941Z" fill="#231F20"/>
<path d="M39.6852 34.5842C39.6762 34.6032 39.6762 34.6252 39.6852 34.6442C39.7352 34.745 39.7352 34.8634 39.6852 34.9642C39.5191 35.3092 39.3722 35.663 39.2452 36.0242L39.0952 37.0242C39.0601 37.6904 39.0601 38.358 39.0952 39.0242C39.1366 40.3627 39.2501 41.698 39.4352 43.0242C39.7452 45.6542 40.0452 48.2842 40.4352 50.9042L41.8152 58.7342L42.5152 62.6442L43.6252 66.5842C43.6646 66.6769 43.6646 66.7816 43.6252 66.8742C43.6205 66.8939 43.6205 66.9145 43.6252 66.9342C43.6952 67.1442 44.5252 67.2142 45.4752 67.1042C46.4252 66.9942 47.2152 66.7342 47.2352 66.5142C47.1696 66.428 47.1344 66.3225 47.1352 66.2142L47.2052 64.9142C47.3521 62.3717 47.3187 59.822 47.1052 57.2842L46.6852 49.5842L45.9852 42.0542L45.8152 40.1742C45.7352 39.5542 45.6352 38.9342 45.5452 38.3042L45.4052 37.3742C45.3828 37.0596 45.3155 36.7498 45.2052 36.4542L44.9052 35.5442C44.7252 35.2542 44.5152 34.9542 44.3252 34.6742C44.2824 34.5893 44.2824 34.4891 44.3252 34.4042C44.3359 34.3857 44.3359 34.3628 44.3252 34.3442C43.5762 34.0754 42.7731 33.993 41.9852 34.1042C41.1886 34.0444 40.3913 34.2108 39.6852 34.5842Z" fill="#242021"/>
<path d="M55.6853 35.2241C55.7357 35.3071 55.7357 35.4112 55.6853 35.4941C55.5031 35.7818 55.3362 36.0788 55.1853 36.3841L54.9553 37.2941C54.8669 37.9039 54.8134 38.5182 54.7953 39.1341C54.6936 40.368 54.6569 41.6064 54.6853 42.8441C54.6853 45.3341 54.6353 47.8441 54.6853 50.3441C54.7353 52.8441 54.9453 55.3441 55.1153 57.8841L55.3953 61.6741C55.6453 62.9541 55.9053 64.2141 56.2353 65.5241C56.2748 65.6167 56.2748 65.7215 56.2353 65.8141C56.2353 65.8141 56.2353 65.8141 56.2353 65.8841C56.2953 66.0941 57.1253 66.1641 58.0753 66.0541C59.0253 65.9441 59.8153 65.6941 59.8453 65.5141C59.7866 65.4407 59.758 65.3478 59.7653 65.2541C59.7653 64.8741 59.8453 64.4841 59.9053 64.0841C60.2426 61.7434 60.4596 59.387 60.5553 57.0241L60.9853 49.8841L61.2253 42.7041L61.2753 40.8941C61.2753 40.2941 61.2753 39.6841 61.2153 39.0841V38.1741C61.2232 37.8637 61.1861 37.5539 61.1053 37.2541L60.8753 36.3241C60.7253 36.0241 60.5353 35.7141 60.3453 35.3941C60.3003 35.2992 60.3003 35.189 60.3453 35.0941C60.35 35.0744 60.35 35.0538 60.3453 35.0341C59.5964 34.7367 58.782 34.6436 57.9853 34.7641C57.1937 34.7417 56.4074 34.8989 55.6853 35.2241Z" fill="#242021"/>
</svg>
